<svg xmlns="http://www.w3.org/2000/svg" xmlns:xlink="http://www.w3.org/1999/xlink" version="1.1" x="0px" y="0px" viewBox="0 0 100 100" enable-background="new 0 0 100 100" xml:space="preserve"><path d="M72.836,32.146v38.414c0,3.884-3.159,7.043-7.043,7.043s-7.043-3.159-7.043-7.043V33.396  c0-13.533-11.01-24.543-24.543-24.543S9.664,19.863,9.664,33.396v38.414h17.5V33.396c0-3.883,3.16-7.043,7.043-7.043  s7.043,3.16,7.043,7.043v37.164c0,13.533,11.01,24.543,24.543,24.543s24.543-11.01,24.543-24.543V32.146H72.836z"></path><path d="M26.663,73.25H10.33c-2.343,0-4.25,1.906-4.25,4.25s1.907,4.25,4.25,4.25h16.333c2.343,0,4.25-1.906,4.25-4.25  S29.006,73.25,26.663,73.25z"></path><path d="M89.662,22.083H73.329c-2.344,0-4.25,1.907-4.25,4.25s1.906,4.25,4.25,4.25h16.333c2.344,0,4.25-1.907,4.25-4.25  S92.006,22.083,89.662,22.083z"></path><path fill="none" stroke="#000000" stroke-width="2.5" stroke-miterlimit="10" d="M34.207,25.104"></path><path fill="none" stroke="#000000" stroke-width="2.5" stroke-miterlimit="10" d="M34.207,10.104"></path></svg>